<?xml version="1.0" encoding="UTF-8" standalone="no"?>
<!-- Created with Inkscape (http://www.inkscape.org/) -->

<svg
   version="1.1"
   id="svg1"
   width="70mm"
   height="53mm"
   viewBox="0 0 264.56726 200.31521"
   xmlns="http://www.w3.org/2000/svg"
   xmlns:svg="http://www.w3.org/2000/svg">
  <defs
     id="defs1" />
  <g
     id="g1"
     transform="translate(-22.338937,-53.506535)">
    <path
       id="path1"
       style="fill:#000000"
       d="M 359.03858 53.666691 C 358.26516 52.86616 342.28596 55.148375 321.79439 58.987011 C 313.06277 60.622685 311.58742 61.229796 307.07367 65.035846 C 302.17901 69.163089 301.92861 69.247647 296.77874 68.574913 C 293.87563 68.195675 289.69943 67.28826 287.49943 66.557333 C 285.29943 65.826406 281.60352 64.914581 279.28653 64.53194 L 275.07363 63.836626 L 271.99355 70.168665 C 267.48165 79.443655 260.67949 91.738588 259.30408 93.104241 C 257.94914 94.449572 255.6986 93.964657 237.36069 88.387439 C 226.22216 84.999813 226.21769 85.000715 205.30401 85.000715 C 187.63596 85.000715 183.46572 84.709044 178.4446 83.125713 C 165.2477 78.964276 154.79686 75.868519 140.99924 72.031949 C 133.02424 69.814418 124.47422 67.35693 121.99922 66.571005 C 119.52422 65.78508 115.89954 64.851814 113.94452 64.496783 L 110.39178 63.850298 L 107.18475 70.424525 C 105.42163 74.040572 103.87129 77.008274 103.73943 77.018284 C 100.91952 77.232328 79.642998 81.022894 79.292134 81.373758 C 79.020805 81.645087 79.472234 84.710226 80.294088 88.184313 C 81.115942 91.6584 82.80412 99.00074 84.046046 104.50074 C 85.287972 110.00074 87.079621 117.64849 88.02652 121.49686 C 88.973419 125.34524 89.548138 129.01459 89.303865 129.65116 C 88.772067 131.037 75.987867 140.30952 57.815544 152.48908 C 52.488972 156.05908 47.896175 159.35881 47.610453 159.82112 C 47.324732 160.28342 48.611551 164.6751 50.469832 169.5809 C 53.046612 176.38353 53.57067 178.77057 52.674913 179.63951 C 51.048779 181.21696 41.183246 188.05323 30.764729 194.82312 C 25.960204 197.94508 22.171175 200.95086 22.344796 201.50086 C 22.518418 202.05086 31.085512 209.25088 41.383883 217.50088 C 55.510076 228.81734 61.629752 233.07974 66.303836 234.86223 C 69.711369 236.16172 73.849161 237.82966 75.499161 238.56927 C 77.149161 239.30887 84.217627 242.18454 91.206212 244.95795 L 103.91326 250.00092 L 122.70625 249.99897 L 141.49924 249.99897 L 150.85082 241.14154 C 161.07298 231.45863 161.12024 231.43954 179.15359 229.49113 C 185.4551 228.81029 186.00484 229.03087 205.8255 240.18841 C 211.50421 243.38509 216.4957 246.00092 216.91926 246.00092 C 218.83086 246.00092 221.00034 250.28138 224.01497 260.00094 C 230.74583 281.70216 230.47511 281.10817 235.23374 284.56151 C 237.66845 286.32838 241.08611 288.51157 242.82945 289.41308 C 245.09339 290.58381 245.99938 291.7591 245.99938 293.52637 C 245.99938 295.01158 245.42495 295.99903 244.56187 295.99903 C 243.77104 295.99903 236.31769 294.42402 227.99935 292.49902 C 219.68101 290.57402 212.50997 289.00097 212.06183 289.00097 C 211.61369 289.00097 210.55524 291.58653 209.71027 294.74903 C 201.94083 323.82793 203.7283 320.20377 184.77664 345.29597 L 178.88796 353.09285 L 205.69464 352.7198 C 232.43087 352.34838 232.52661 352.33865 242.99937 349.17683 C 248.77437 347.43331 255.52439 345.53859 257.99939 344.96589 L 262.4994 343.92487 L 272.49941 324.35063 C 277.99941 313.58447 283.02172 304.56847 283.65958 304.31545 C 285.30089 303.6644 290.51451 306.51468 297.50335 311.88577 C 300.805 314.42317 304.25152 316.94906 305.16351 317.49906 C 306.07549 318.04906 309.5572 320.41156 312.89985 322.74906 C 317.24591 325.78825 319.9768 326.99907 322.48775 326.99907 C 326.58603 326.99907 327.25121 329.10839 323.66744 330.74126 C 322.01983 331.49197 320.80841 333.5204 319.54244 337.65143 C 318.5568 340.86774 317.17629 344.84909 316.47407 346.49909 C 314.69843 350.67131 312.99946 356.06263 312.99946 357.5245 C 312.99946 358.872 314.37858 359.22535 330.49948 362.0206 C 343.59524 364.29131 347.25695 365.26951 347.70458 366.6124 C 347.8884 367.16384 345.5272 372.48857 342.45848 378.4464 C 339.38975 384.40423 337.2432 389.62651 337.68895 390.05188 C 338.54886 390.87248 360.75159 399.3939 367.49953 401.4933 C 370.7342 402.49972 371.85852 402.49055 373.37454 401.43862 C 374.40563 400.72316 382.99576 392.64666 392.46441 383.49133 L 409.68122 366.84482 L 430.45859 366.96006 L 451.23792 367.07334 L 450.67151 364.28623 C 450.36056 362.75345 449.16184 357.6741 448.00549 352.9991 C 446.84913 348.3241 445.5214 341.41986 445.05627 337.65533 C 444.59114 333.89081 443.75576 330.35482 443.19884 329.7979 C 442.10604 328.7051 431.70848 330.61751 419.9996 334.06353 C 416.4246 335.11568 411.60887 336.26077 409.29841 336.60846 C 405.28806 337.21195 405.06855 337.10997 404.45856 334.37017 C 402.72393 326.57904 401.82732 325.09892 396.94488 321.96586 C 394.22499 320.22051 391.99956 318.14856 391.99956 317.36234 C 391.99956 316.55102 395.35099 314.39833 399.74957 312.38577 C 408.52326 308.37138 414.52018 305.60785 424.20859 301.11232 C 427.89815 299.40032 431.10982 298.00098 431.34531 298.00098 C 431.58081 298.00098 435.9864 296.04538 441.13634 293.65723 C 446.28628 291.26909 453.5242 288.05791 457.22035 286.5205 C 461.83087 284.60275 467.55302 280.75614 475.44889 274.26658 C 485.71579 265.82828 487.76516 263.57989 494.43914 253.43062 L 501.92158 242.05365 L 519.60128 242.05365 C 529.32511 242.05365 537.47419 241.85849 537.71068 241.62201 C 537.94716 241.38552 537.02442 238.3371 535.6599 234.84661 C 534.29538 231.35612 532.19717 225.35089 530.99778 221.50089 C 529.79838 217.65089 528.22482 212.70087 527.50169 210.50087 C 522.56487 195.48127 522.62189 196.107 525.49387 188.47741 C 526.93823 184.64038 528.58986 179.92583 529.1638 178.00083 C 529.73775 176.07583 530.53327 174.05083 530.93138 173.50083 C 533.01461 170.62279 535.10212 162.74324 534.50365 160.01839 C 533.8382 156.98863 529.41442 153.0008 526.72043 153.0008 C 525.91198 153.0008 523.40216 152.34696 521.1423 151.54963 C 513.29923 148.78244 490.0616 145.71585 478.40983 145.909 C 470.34113 146.04276 467.04056 145.73866 466.29262 144.79571 C 465.72725 144.08293 464.0739 140.14058 462.61684 136.03398 C 461.15979 131.92738 459.53977 128.13855 459.01722 127.616 C 457.84463 126.44341 442.14827 128.06876 421.74765 131.47343 C 413.63358 132.8276 406.33773 133.68391 405.53473 133.37578 C 403.94233 132.76472 401.64155 127.15848 396.34527 110.98708 L 392.90191 100.47534 L 383.70072 100.48706 L 374.49954 100.50074 L 374.65384 97.500731 C 374.73806 95.850731 375.40205 92.552962 376.1304 90.172597 C 377.34202 86.212855 377.2751 85.532255 375.34329 82.172587 C 374.182 80.152952 370.2204 73.100692 366.53859 66.500692 C 362.85678 59.900692 359.48178 54.125426 359.03858 53.666691 z M 352.74365 60.725294 C 356.75754 60.85373 357.98054 63.111658 362.21241 70.494838 C 364.42101 74.3481 367.30252 79.178518 368.61477 81.229226 C 371.5936 85.88434 371.57988 87.605879 368.48781 97.28784 C 367.11984 101.5713 365.99953 105.49501 365.99953 106.0066 C 365.99953 106.51819 371.24274 107.06259 377.64993 107.21754 L 389.29839 107.50074 L 391.20659 113.00075 C 400.38728 139.46099 400.4102 139.50857 403.64997 139.43047 C 410.57094 139.26367 433.10695 136.73772 439.31603 135.43242 C 448.97906 133.40101 455.60724 133.52554 456.35511 135.75078 C 456.67859 136.71328 458.25426 140.65079 459.85707 144.50079 L 462.77113 151.5008 L 475.13638 151.76252 C 495.92986 152.20266 526.03904 157.47898 528.28684 161.07698 C 529.01027 162.23496 527.77541 166.70113 523.63645 177.89732 C 520.53689 186.28184 517.99972 194.30268 517.99972 195.72156 C 517.99972 197.14044 520.21952 205.32184 522.93137 213.90127 C 525.64321 222.48069 528.15265 230.9634 528.5095 232.7509 L 529.15794 236.00091 L 514.32979 236.00481 L 499.4997 236.00872 L 490.96844 248.75483 C 483.55822 259.82578 481.09228 262.62428 472.20083 270.05564 C 466.57084 274.76112 460.285 279.21128 458.23207 279.94627 C 456.17914 280.68126 451.25858 282.79455 447.29651 284.64159 C 443.33444 286.48863 439.85402 288.00097 439.56212 288.00097 C 439.27021 288.00097 434.41125 290.21097 428.76523 292.91309 C 423.1192 295.61521 410.84957 301.29121 401.49957 305.52639 C 392.14957 309.76157 383.21444 313.88662 381.64213 314.69437 L 378.78275 316.16312 L 385.64213 320.99711 C 397.72854 329.51389 397.76627 329.55686 399.04449 335.77056 C 400.77616 344.18862 401.46045 345.15783 404.76911 343.89167 C 408.81793 342.34226 437.01717 336.89139 437.96251 337.47564 C 438.97804 338.10327 442.77447 352.28 443.19103 356.99911 L 443.49963 360.49911 L 425.38632 360.99911 L 407.27106 361.49911 L 392.88628 375.11827 C 384.97412 382.60885 376.86629 390.14637 374.86868 391.86829 C 372.87108 393.59021 370.62107 394.9557 369.86867 394.9015 C 367.48883 394.72997 353.54203 389.93426 352.55029 388.94641 C 352.02779 388.42595 350.846 387.99915 349.92334 387.99915 C 349.00069 387.99915 347.72526 387.37434 347.0913 386.61047 C 346.1859 385.51953 347.23351 382.71963 351.97021 373.55772 C 355.28682 367.1426 357.99952 361.53163 357.99952 361.087 C 357.99952 360.37775 350.09098 358.77165 327.24948 354.84676 C 323.81198 354.25608 320.99947 353.29455 320.99947 352.70809 C 320.99947 351.02923 325.22944 338.63457 326.2651 337.27838 C 326.77816 336.60653 332.66595 332.78152 339.3491 328.77837 L 351.49951 321.49906 L 335.99949 320.99906 L 320.49947 320.49906 L 312.17133 314.49905 C 293.70425 301.19421 288.22877 297.99903 283.89591 297.99903 C 279.44993 297.99903 278.06683 299.62707 272.85097 310.99905 C 266.13837 325.63431 259.99761 336.93187 258.26111 337.83502 C 257.29287 338.33861 252.22438 339.94781 246.99938 341.41315 C 241.77438 342.8785 235.31173 344.73465 232.63608 345.53815 C 229.17741 346.57678 222.74606 346.99909 210.38605 346.99909 C 190.40486 346.99909 190.48923 347.05126 196.74931 338.90924 C 206.5399 326.17536 208.00233 324.09393 208.03253 322.84281 C 208.08828 320.53645 214.78614 297.81383 215.66535 296.94825 C 216.56921 296.0584 228.94507 298.36511 231.97983 299.98927 C 233.00222 300.53644 236.91265 301.4345 240.66929 301.98537 C 244.42594 302.53624 248.51188 303.26782 249.74938 303.61037 C 251.94798 304.21898 251.99938 304.04936 251.99938 296.17872 L 251.99938 288.12402 L 245.8275 284.31151 C 236.45498 278.52257 234.5797 276.34144 232.66928 269.00095 C 231.73887 265.42595 229.52092 258.23312 227.73959 253.01851 L 224.49935 243.53803 L 216.49934 239.20013 C 212.09934 236.81448 205.34932 232.94743 201.49932 230.60637 C 189.45743 223.28412 186.25592 222.43926 176.02273 223.88761 C 171.20188 224.56993 164.75862 225.88625 161.70435 226.81339 C 156.36718 228.43352 154.7933 229.56802 143.69065 239.7724 L 138.8801 244.19232 L 121.59102 243.64154 C 103.99599 243.08018 101.72165 242.6343 90.499179 237.54974 C 88.849179 236.80217 85.924171 235.73355 83.999171 235.17473 C 82.074171 234.61591 78.02416 233.17499 74.99916 231.97356 C 71.97416 230.77213 67.951591 229.21336 66.059695 228.50871 C 64.167799 227.80406 59.930502 225.03918 56.641715 222.36417 C 39.126877 208.11804 32.999107 202.87421 32.999107 202.13172 C 32.999107 200.89118 35.533638 198.873 46.524514 191.35632 C 52.038351 187.58539 57.62362 183.73181 58.934686 182.79381 L 61.317502 181.08873 L 58.159295 173.09458 C 56.421892 168.69791 54.999135 164.41833 54.999135 163.58285 C 54.999135 161.95184 59.791273 158.19108 75.538223 147.46369 C 81.017361 143.7311 87.440343 139.20284 89.811679 137.40117 C 92.183016 135.59949 94.616281 133.96174 95.219889 133.76054 C 96.266772 133.41158 95.755579 130.60606 90.428867 107.50074 C 87.803961 96.114865 86.032785 86.633123 86.452299 86.213608 C 87.171992 85.493916 102.31892 83.078522 103.09685 83.559307 C 105.28217 84.90991 108.63769 81.906438 110.38983 77.033909 C 111.41764 74.175675 112.90704 71.589542 113.69843 71.285854 C 114.48983 70.982167 119.49276 72.131201 124.81758 73.840545 C 130.14241 75.549889 142.721 79.232062 152.76879 82.022196 C 162.81658 84.812331 173.73725 87.958488 177.0364 89.012439 C 182.0818 90.624246 186.30089 90.946499 203.59503 91.041739 C 218.41866 91.123377 225.59877 91.566157 229.32748 92.629631 C 240.19038 95.727869 251.68829 99.15584 256.38416 100.69605 C 261.22491 102.28377 261.28372 102.27659 263.12635 99.899172 C 264.14878 98.579996 265.92041 95.475726 267.06386 93.000726 C 268.2073 90.525726 269.54476 87.743946 270.03652 86.819077 C 270.52827 85.894208 272.55333 81.956697 274.53457 78.069066 C 278.64412 70.005236 279.0066 69.874016 288.49943 73.067107 C 291.79943 74.177123 296.42452 75.354101 298.77679 75.682344 C 302.74869 76.236596 303.48975 75.940185 309.17133 71.528042 C 315.92853 66.280595 318.22954 65.383226 328.49948 63.990923 C 332.34948 63.468975 339.77306 62.388202 344.9956 61.588576 C 348.51747 61.04934 350.91916 60.666914 352.74365 60.725294 z " />
  </g>
</svg>
