<?xml version="1.0" encoding="UTF-8" standalone="no"?>
<!-- Created with Inkscape (http://www.inkscape.org/) -->

<svg
   version="1.1"
   id="svg1"
   width="33.200001mm"
   height="35mm"
   viewBox="0 0 125.48048 132.28364"
   sodipodi:docname="Tournesol vect fusion refonte vecteurs retrait interne.svg"
   inkscape:version="1.1.1 (3bf5ae0d25, 2021-09-20)"
   xmlns:inkscape="http://www.inkscape.org/namespaces/inkscape"
   xmlns:sodipodi="http://sodipodi.sourceforge.net/DTD/sodipodi-0.dtd"
   xmlns:xlink="http://www.w3.org/1999/xlink"
   xmlns="http://www.w3.org/2000/svg"
   xmlns:svg="http://www.w3.org/2000/svg">
  <sodipodi:namedview
     id="namedview6"
     pagecolor="#ffffff"
     bordercolor="#666666"
     borderopacity="1.0"
     inkscape:pageshadow="2"
     inkscape:pageopacity="0.0"
     inkscape:pagecheckerboard="0"
     inkscape:document-units="mm"
     showgrid="false"
     inkscape:zoom="2.8284271"
     inkscape:rotation="-1"
     inkscape:cx="130.86705"
     inkscape:cy="201.41469"
     inkscape:window-width="1920"
     inkscape:window-height="1009"
     inkscape:window-x="-8"
     inkscape:window-y="-8"
     inkscape:window-maximized="1"
     inkscape:current-layer="g1" />
  <defs
     id="defs1">
    <clipPath
       clipPathUnits="userSpaceOnUse"
       id="clipPath828">
      <use
         x="0"
         y="0"
         xlink:href="#g824"
         id="use830" />
    </clipPath>
  </defs>
  <g
     id="g1">
    <g
       id="g826"
       clip-path="url(#clipPath828)"
       transform="translate(-67.952958,9.1889288)">
      <g
         inkscape:label="Clip"
         id="g824">
        <path
           style="fill:#000000"
           d="m 279.84684,485.00551 c -4.15792,-1.67293 -11.95365,-28.77533 -14.12886,-49.11993 -1.4586,-13.64229 -1.30899,-43.61069 0.29653,-59.39554 1.92651,-18.94078 -0.43324,-30.6552 -7.54348,-37.44767 -2.96224,-2.82986 -3.0218,-2.84127 -4.52949,-0.86757 -0.84027,1.1 -3.47113,6.14179 -5.84635,11.20397 -2.37523,5.06218 -5.5918,10.81488 -7.14795,12.78378 -6.446,8.15572 -17.76027,11.61298 -29.32935,8.96205 -17.83661,-4.08705 -19.65292,-4.11285 -31.36386,-0.44553 -10.05267,3.14802 -10.81073,3.24971 -12.39738,1.66306 -1.57891,-1.57891 -1.58255,-2.20959 -0.0554,-9.5949 4.02915,-19.48545 17.82609,-37.58964 34.42621,-45.17371 7.62683,-3.48446 17.95707,-5.34653 24.69924,-4.45215 7.99935,1.06116 18.91117,6.08031 24.37135,11.2102 2.65092,2.49056 6.64402,5.79749 8.87355,7.34874 4.89906,3.40863 8.85638,8.90686 11.05511,15.35978 0.89819,2.63606 1.96528,4.41975 2.37129,3.96377 2.02359,-2.27262 4.31441,-23.64808 4.26851,-39.82906 -0.041,-14.43653 -0.42791,-18.678 -2.56611,-28.12787 -4.06927,-17.98427 -10.71128,-32.52474 -21.24267,-46.50367 -2.33346,-3.09735 -4.7245,-6.53188 -5.31342,-7.63229 -1.3848,-2.5875 -12.9508,-4.74511 -14.91378,-2.78212 -0.22601,0.22601 0.80905,2.80381 2.30014,5.72844 1.49108,2.92463 3.10735,6.09354 3.59171,7.04203 1.5839,3.10165 4.75912,13.14994 6.09097,19.27548 1.35339,6.2246 1.66079,31.95235 0.4399,36.8168 -0.64069,2.55271 -0.97647,2.6829 -6.90439,2.67704 -3.42702,-0.003 -7.38594,-0.6089 -8.79759,-1.34558 -1.41166,-0.73667 -3.88666,-1.66136 -5.5,-2.05485 -1.61334,-0.39349 -5.93702,-2.48798 -9.60818,-4.65442 -3.67119,-2.16645 -6.98142,-3.93899 -7.35611,-3.93899 -0.37469,0 -1.55939,-1.11637 -2.63267,-2.48083 -1.07329,-1.36446 -2.27327,-2.37696 -2.66664,-2.25 -1.20756,0.38974 -12.97522,-10.8079 -17.97624,-17.10548 -5.39201,-6.78992 -5.97991,-6.17672 -7.51298,7.83631 -0.44548,4.07189 -2.88657,13.27036 -3.71532,14 -0.31236,0.275 -1.33971,2.5594 -2.28301,5.07644 -0.94329,2.51705 -3.62019,7.41038 -5.94866,10.87408 -2.32846,3.4637 -4.77722,7.27625 -5.44169,8.47232 -1.86793,3.3624 -12.09877,13.76433 -15.03746,15.28895 -2.41356,1.25217 -2.82188,1.1558 -4.9844,-1.17639 -3.50656,-3.78166 -10.5283,-17.30848 -9.6894,-18.66585 0.42755,-0.69178 0.29949,-0.91349 -0.31006,-0.53677 -0.96486,0.59632 -1.85251,-1.114 -4.19491,-8.08278 -2.46391,-7.33028 -3.39105,-21.64286 -2.0408,-31.50453 1.33282,-9.73434 0.37863,-11.62374 -3.8108,-7.54582 -7.2824,7.08856 -13.01607,11.45504 -14.47405,11.02273 -0.4125,-0.12231 -0.75,0.21847 -0.75,0.7573 0,1.2712 -7.797315,5.25455 -9.303135,4.75261 -0.63455,-0.21152 -1.91731,0.32469 -2.85059,1.19157 -2.83054,2.62916 -14.422839,5.36686 -23.183769,5.4752 l -8.16251,0.10094 -0.315259,-3.83209 c -0.850322,-10.33597 8.140539,-32.55988 17.065259,-42.18244 1.5125,-1.63077 2.75,-3.25419 2.75,-3.6076 0,-0.35342 1.84948,-2.49205 4.10994,-4.75252 5.823519,-5.82352 4.941369,-7.12531 -4.82856,-7.12552 -8.87155,-2e-4 -22.229845,-2.29141 -25.544792,-4.38144 -1.230124,-0.77558 -3.361588,-1.74364 -4.736588,-2.15126 -6.64287,-1.96927 -17.375548,-11.70436 -16.37659,-14.8544 1.312755,-4.13955 20.041933,-19.61273 23.739798,-19.61273 0.680236,0 1.664292,-0.40688 2.186792,-0.90417 2.401324,-2.28549 16.51375,-6.25621 24.1458,-6.79374 4.94499,-0.34828 8.377539,-1.05082 8.653969,-1.7712 0.252,-0.65668 -1.54376,-2.73227 -3.990559,-4.61243 -7.02584,-5.39874 -17.35921,-15.12222 -17.35921,-16.33464 0,-0.60734 -1.22295,-2.42315 -2.71767,-4.03514 -1.49471,-1.61198 -2.84948,-3.79461 -3.01059,-4.85028 -0.1611,-1.05567 -1.164868,-3.14394 -2.230584,-4.6406 -1.907304,-2.67856 -5.607898,-11.60352 -5.621528,-13.5578 -0.0038,-0.55 -0.579397,-2.95792 -1.279026,-5.35094 -0.699628,-2.39302 -1.039704,-4.58329 -0.755724,-4.86727 0.28398,-0.28398 2.573888,-0.74825 5.088684,-1.0317 2.514796,-0.28345 4.813578,-0.90568 5.108418,-1.38273 1.50895,-2.44153 20.01712,-0.27388 28.418019,3.32828 1.375,0.58957 3.4,1.4169 4.5,1.8385 4.044925,1.5503 11.101065,4.96013 14.730985,7.11863 2.05204,1.22023 4.02041,1.92917 4.37416,1.57542 0.35375,-0.35375 -0.16724,-4.14981 -1.15777,-8.43569 -2.10299,-9.09937 -3.25187,-39.292504 -1.49512,-39.292504 0.57626,0 1.05262,-1.0125 1.05857,-2.25 0.0368,-7.64232 8.99319,-24.77743 12.92724,-24.73194 0.85907,0.01 4.99309,2.0176 9.18671,4.46147 10.77936,6.28177 21.86428,18.92923 28.50272,32.52047 3.65956,7.49241 5.26995,11.64844 5.92853,15.30008 0.86956,4.821444 3.4629,4.657214 4.84705,-0.30695 0.53569,-1.92122 1.23907,-3.71813 1.56306,-3.99313 0.32399,-0.275 1.42567,-2.525 2.44817,-5 5.48316,-13.27212 7.04942,-15.60507 17.51512,-26.08872 5.81382,-5.8238 13.04558,-12.18821 16.07058,-14.14312 6.70531,-4.33334 14.75813,-8.03568 15.91838,-7.3186 0.47026,0.29063 1.41108,-0.14162 2.09075,-0.96057 2.84918,-3.43305 4.96504,-1.09532 7.25069,8.01101 3.21245,12.79885 1.7328,41.64817 -2.35672,45.95 -0.49671,0.5225 -0.936,1.8725 -0.9762,3 -0.0402,1.127504 -0.92586,3.400004 -1.96814,5.050004 -1.04228,1.65 -2.59905,4.575 -3.45949,6.5 -0.86044,1.925 -2.21376,3.99156 -3.00738,4.59234 -1.23106,0.93196 -1.24067,1.36896 -0.0654,2.97621 1.3439,1.8379 1.48359,1.83207 5.72551,-0.23872 2.3914,-1.16741 5.36051,-2.42453 6.59801,-2.79359 1.2375,-0.36906 2.25,-1.09069 2.25,-1.60363 0,-0.51293 1.15458,-0.93261 2.56574,-0.93261 1.41116,0 3.38712,-0.43959 4.39102,-0.97686 7.63501,-4.08613 40.38409,-2.13663 46.08341,2.74328 1.64211,1.40602 1.44801,2.07609 -3.19655,11.03522 -2.71964,5.24607 -6.34306,11.37432 -8.05204,13.61834 -4.20497,5.52144 -18.28165,18.98794 -21.60536,20.66882 -1.47742,0.74717 -3.75161,2.15172 -5.05376,3.12122 -1.30214,0.9695 -2.76464,1.5173 -3.25,1.21734 -0.48537,-0.29997 -0.88248,-0.0992 -0.88248,0.44624 0,0.54539 -1.0125,1.3076 -2.25,1.69379 -2.13039,0.66485 -3.70086,2.16501 -3.73469,3.56751 -0.008,0.34919 2.3425,1.40609 5.22427,2.34867 9.33987,3.05492 19.67391,8.47395 24.52776,12.86202 9.38997,8.48892 14.1712,14.02397 16.76172,19.40441 0.86063,1.7875 1.94488,3.25 2.40945,3.25 0.46457,0 1.13781,1.16796 1.49609,2.59547 0.49592,1.9759 0.0843,3.12102 -1.72418,4.7971 -2.22834,2.06516 -11.8132,6.60743 -13.94264,6.60743 -0.53104,0 -2.38353,0.62772 -4.11665,1.39493 -3.87745,1.71645 -15.7172,3.6041 -18.84758,3.00493 -1.69555,-0.32454 -1.84966,-0.23689 -0.58388,0.33206 2.48663,1.11771 14.43996,19.40737 18.80783,28.77765 7.91422,16.97819 11.79523,33.9992 12.13443,53.21823 0.11869,6.72529 0.30341,12.12529 0.41048,12 0.10707,-0.12529 2.55823,-4.7278 5.44703,-10.2278 5.95887,-11.34515 10.48402,-19.22097 16.20709,-28.20772 3.94676,-6.19746 3.95191,-6.21895 3.11315,-13 -3.95255,-31.95491 13.42416,-60.48969 41.81423,-68.6643 15.14567,-4.36103 41.31321,-0.23029 48.69048,7.68614 2.99544,3.21436 2.26252,5.69421 -2.62544,8.88327 -18.44004,12.03085 -19.93958,13.85405 -22.60114,27.47925 -0.94796,4.85285 -2.84761,11.29836 -4.22144,14.32336 -6.01883,13.25272 -22.18257,23.34641 -39.38598,24.59517 -15.64033,1.13529 -18.43874,2.25453 -22.78414,9.11258 -8.48665,13.39391 -20.04516,37.0773 -24.57071,50.34537 -3.70605,10.86547 -7.30143,25.64287 -9.59751,39.44688 -2.00964,12.08191 -3.6454,38.74061 -2.49164,40.60742 0.3414,0.55239 1.92177,-1.74672 3.51194,-5.10913 4.9701,-10.50928 9.94016,-17.10555 22.1261,-29.36578 l 11.79557,-11.86749 v -8.24602 c 0,-11.02866 1.26373,-17.05652 5.49652,-26.21785 4.73418,-10.24649 10.2437,-17.15239 19.75611,-24.76327 14.53181,-11.62688 31.29376,-18.34157 52.56542,-21.05724 13.25942,-1.69277 27.3235,-0.73139 38.68195,2.6442 10.28489,3.05655 10.53929,4.44949 1.89939,10.40001 -12.71779,8.75908 -24.07417,24.44866 -28.042,38.74183 -0.79903,2.87833 -2.10141,7.59893 -2.89418,10.49022 -4.73138,17.25584 -20.51328,34.15715 -36.15362,38.71803 -8.9879,2.62096 -18.09649,2.84365 -25.64103,0.62689 -7.42626,-2.18201 -14.64235,-5.95073 -18.82471,-9.83154 -3.63187,-3.37001 -5.65812,-2.51745 -13.887,5.84308 -7.60784,7.72955 -14.39566,16.83724 -18.28623,24.5359 -5.48271,10.84919 -6.79461,15.54729 -7.3582,26.35074 -0.56907,10.90868 -0.53801,11.08101 5.98469,33.20597 0.93525,3.17236 0.82622,4.00027 -0.75726,5.75 -1.76616,1.95158 -4.56782,2.4784 -7.31089,1.37474 z"
           id="path1"
           sodipodi:nodetypes="sssssssssscssssssssssssssscsssssssssssssssssssssssscssssssssssssssssscssscssssssccsssssssssssssssssssssssssssssscsssssssssssssssssssssssssssscsssssssssssssssss" />
      </g>
    </g>
    <path
       id="path1397"
       style="fill:none;fill-rule:evenodd;stroke:#ff0000;stroke-width:0.381101;stop-color:#000000"
       d="m 166.72032,189.44583 c -4.85932,32.99555 -25.53357,62.86266 -58.51258,71.37541 -22.659768,5.84908 -48.869718,-0.39685 -65.836564,-17.07331 -15.28506,-14.71609 -20.134277,-37.63641 -15.835656,-57.97062 4.239264,-24.63318 19.176877,-48.04233 41.968801,-59.24501 21.154624,-10.4672 48.190859,-12.51602 68.686449,0.61121 24.56874,11.34119 33.12305,37.90187 29.52955,62.30232 z"
       sodipodi:nodetypes="ssssscs" />
    <path
       id="path3685"
       style="fill:none;fill-rule:evenodd;stroke:#ff0000;stroke-width:0.304844;stop-color:#000000"
       d="m 152.57594,189.62211 c -2.36504,33.20644 -22.60028,51.21306 -46.80442,57.09344 -17.792945,4.32278 -36.896962,1.78398 -52.662905,-13.657 -12.125484,-11.87556 -16.10548,-30.1055 -12.666998,-46.37091 3.391003,-19.70417 15.339653,-38.42923 33.570994,-47.39029 16.921659,-8.37275 38.548039,-10.01161 54.942539,0.48891 15.13778,10.59085 25.5846,22.26282 23.62079,49.83585 z"
       sodipodi:nodetypes="ssssscs" />
    <path
       id="path3687"
       style="fill:none;fill-rule:evenodd;stroke:#ff0000;stroke-width:0.268932;stop-color:#000000"
       d="m 145.91483,189.70512 c -2.4379,22.7976 -19.24023,43.35886 -41.29062,50.36754 -15.506207,4.92862 -34.263936,-0.99719 -46.458937,-12.04814 -9.760577,-8.84491 -14.018424,-26.878 -10.87048,-41.20257 3.6639,-16.6724 13.933003,-32.61621 29.311876,-41.51307 12.152635,-7.03044 33.440931,-8.64995 48.470021,0.43132 14.45357,9.182 22.50882,27.06243 20.83814,43.96492 z"
       sodipodi:nodetypes="ssssscs" />
  </g>
</svg>
